<svg width="11" height="12" viewBox="0 0 11 12" fill="none" xmlns="http://www.w3.org/2000/svg">
<path d="M4.65941 8.47388C5.35938 8.47388 5.92683 9.04132 5.92683 9.7413C5.92683 10.4413 5.35939 11.0087 4.65942 11.0087C3.95944 11.0087 3.392 10.4413 3.392 9.7413C3.392 9.04132 3.95943 8.47388 4.65941 8.47388ZM4.65941 10.1377C4.8783 10.1377 5.05575 9.96019 5.05575 9.74131C5.05575 9.52242 4.87829 9.34496 4.65941 9.34496C4.44051 9.34496 4.26306 9.52242 4.26306 9.74131C4.26306 9.96021 4.44052 10.1377 4.65941 10.1377ZM8.40068 8.47388C9.10066 8.47388 9.66811 9.04132 9.66811 9.7413C9.66811 10.4413 9.10066 11.0087 8.40068 11.0087C7.70071 11.0087 7.13327 10.4413 7.13327 9.7413C7.13327 9.04132 7.70071 8.47388 8.40069 8.47388H8.40068ZM8.40068 10.1377C8.61958 10.1377 8.79703 9.96019 8.79703 9.74131C8.79703 9.52242 8.61958 9.34496 8.40068 9.34496C8.18178 9.34496 8.00433 9.52242 8.00433 9.74131C8.00433 9.96021 8.18178 10.1377 8.40068 10.1377ZM8.39197 9.34496H4.03625C3.22202 9.34496 2.56195 8.6849 2.56195 7.87066C2.56195 7.18772 3.02632 6.61323 3.65653 6.44573L3.6668 6.4434L2.43641 2.42861C2.3291 2.09754 2.02349 1.86239 1.66294 1.86239H0.5V0.991333H1.66511C2.4128 0.991333 3.04632 1.48001 3.26369 2.15541L3.267 2.16729V2.17165L4.82884 7.26746H4.0366C3.70345 7.26746 3.43337 7.53753 3.43337 7.87068C3.43337 8.20384 3.70344 8.47391 4.0366 8.47391H8.39199L8.39197 9.34496ZM9.56097 7.26743H4.24127V6.39638H8.90416L9.62891 3.86154V3.52619H3.41376V2.6551H10.5V3.98349L9.56097 7.26743Z" fill="black"/>
</svg>
