<svg width="11" height="10" viewBox="0 0 11 10" fill="none" xmlns="http://www.w3.org/2000/svg">
<path d="M4.30498 9.76026e-06C6.40643 9.76026e-06 8.10998 1.70356 8.10998 3.80499C8.10998 5.90642 6.40643 7.60999 4.305 7.60999C2.20354 7.60999 0.5 5.90643 0.5 3.80501C0.5025 1.70457 2.20456 0.0025 4.30476 0H4.305L4.30498 9.76026e-06ZM4.30498 6.72921C5.91999 6.72921 7.2292 5.42 7.2292 3.80499C7.2292 2.18998 5.91999 0.880801 4.30498 0.880801C2.68999 0.880801 1.38078 2.19001 1.38078 3.80502C1.38278 5.4192 2.6908 6.72722 4.3048 6.72922H4.305L4.30498 6.72921ZM9.87598 10L6.3057 6.42843L6.92842 5.80571L10.5 9.37598L9.87598 10Z" fill="black"/>
</svg>
